<svg xmlns="http://www.w3.org/2000/svg" width="16" height="14" viewBox="0 0 16 14">
    <path d="M13.225 12.263a.659.659 0 0 1-.652-.664c0-.366.293-.663.652-.663.36 0 .652.297.652.663a.658.658 0 0 1-.652.664m-7.82-.663c0-.37.296-.672.66-.672.362 0 .658.301.658.672 0 .37-.296.672-.658.672a.666.666 0 0 1-.66-.672m8.3-2.727l1.85-5.602c.094-.271.023-.414-.053-.522-.192-.274-.585-.267-.662-.267l-10.456.004-.28-1.429C4.03.738 3.808.356 3.359.356H.419C.115.356 0 .665 0 .955v.779c0 .28.114.19.43.19H2.91L4.81 10.22c-.302.326-.466.84-.466 1.284 0 .974.761 1.811 1.733 1.811.92 0 1.607-.938 1.719-1.46h3.698c.112.522.67 1.5 1.718 1.5.955 0 1.733-.801 1.733-1.775 0-.967-.577-1.886-1.723-1.886-.477 0-1.042.07-1.305.593H7.373c-.33-.523-.78-.686-1.236-.704l-.062-.342h6.914c.521 0 .624-.112.716-.368"/>
</svg>
